<svg height="16" viewBox="0 0 16 16" width="16" xmlns="http://www.w3.org/2000/svg"><path d="m3.492188 1.945312c1.828124 1.363282 3.789062 4.140626 4.507812 5.628907.71875-1.488281 2.679688-4.261719 4.507812-5.628907 1.3125-.988281 3.445313-1.75 3.445313.679688 0 .484375-.277344 4.078125-.441406 4.664062-.566407 2.023438-2.636719 2.542969-4.476563 2.226563 3.214844.546875 4.035156 2.359375 2.265625 4.171875-3.355469 3.445312-4.824219-.863281-5.199219-1.964844-.050781-.152344-.078124-.246094-.101562-.246094s-.050781.09375-.101562.246094c-.375 1.101563-1.84375 5.410156-5.199219 1.964844-1.765625-1.8125-.949219-3.625 2.265625-4.171875-1.839844.316406-3.910156-.203125-4.472656-2.230469-.167969-.585937-.445313-4.179687-.445313-4.664062 0-2.429688 2.132813-1.667969 3.445313-.679688zm0 0"/></svg>