<svg xmlns="http://www.w3.org/2000/svg" xmlns:xlink="http://www.w3.org/1999/xlink" width="16" height="16" version="1.1" viewBox="0 0 16 16"><g id="surface1"><path style="stroke:none;fill-rule:nonzero;fill:#000;fill-opacity:1" d="M 3.492188 1.945312 C 5.320312 3.308594 7.28125 6.085938 8 7.574219 C 8.71875 6.085938 10.679688 3.3125 12.507812 1.945312 C 13.820312 0.957031 15.953125 0.195312 15.953125 2.625 C 15.953125 3.109375 15.675781 6.703125 15.511719 7.289062 C 14.945312 9.3125 12.875 9.832031 11.035156 9.515625 C 14.25 10.0625 15.070312 11.875 13.300781 13.6875 C 9.945312 17.132812 8.476562 12.824219 8.101562 11.722656 C 8.050781 11.570312 8.023438 11.476562 8 11.476562 C 7.976562 11.476562 7.949219 11.570312 7.898438 11.722656 C 7.523438 12.824219 6.054688 17.132812 2.699219 13.6875 C 0.933594 11.875 1.75 10.0625 4.964844 9.515625 C 3.125 9.832031 1.054688 9.3125 0.492188 7.285156 C 0.324219 6.699219 0.046875 3.105469 0.046875 2.621094 C 0.046875 0.191406 2.179688 0.953125 3.492188 1.941406 Z M 3.492188 1.945312"/></g></svg>